<?xml version="1.0" encoding="UTF-8"?>
<svg xmlns="http://www.w3.org/2000/svg" xmlns:xlink="http://www.w3.org/1999/xlink" width="648pt" height="324pt" viewBox="0 0 648 324" version="1.1">
<defs>
<g>
<symbol overflow="visible" id="glyph0-0">
<path style="stroke:none;" d="M 1.5 0 L 1.5 -7.5 L 7.5 -7.5 L 7.5 0 Z M 1.6875 -0.1875 L 7.3125 -0.1875 L 7.3125 -7.3125 L 1.6875 -7.3125 Z M 1.6875 -0.1875 "/>
</symbol>
<symbol overflow="visible" id="glyph0-1">
<path style="stroke:none;" d="M 0.949219 0 L 0.949219 -8.589844 L 7.160156 -8.589844 L 7.160156 -7.578125 L 2.085938 -7.578125 L 2.085938 -4.945313 L 6.835938 -4.945313 L 6.835938 -3.9375 L 2.085938 -3.9375 L 2.085938 -1.015625 L 7.359375 -1.015625 L 7.359375 0 Z M 0.949219 0 "/>
</symbol>
<symbol overflow="visible" id="glyph0-2">
<path style="stroke:none;" d="M 0.0859375 0 L 2.359375 -3.234375 L 0.257813 -6.222656 L 1.578125 -6.222656 L 2.53125 -4.765625 C 2.710938 -4.484375 2.855469 -4.253906 2.964844 -4.066406 C 3.136719 -4.324219 3.292969 -4.550781 3.4375 -4.75 L 4.488281 -6.222656 L 5.75 -6.222656 L 3.597656 -3.292969 L 5.914063 0 L 4.617188 0 L 3.339844 -1.933594 L 3 -2.453125 L 1.367188 0 Z M 0.0859375 0 "/>
</symbol>
<symbol overflow="visible" id="glyph0-3">
<path style="stroke:none;" d="M 0.398438 -3.109375 C 0.398438 -4.261719 0.71875 -5.117188 1.359375 -5.671875 C 1.894531 -6.132813 2.546875 -6.363281 3.316406 -6.363281 C 4.171875 -6.363281 4.871094 -6.082031 5.414063 -5.519531 C 5.953125 -4.957031 6.222656 -4.183594 6.226563 -3.199219 C 6.222656 -2.398438 6.101563 -1.765625 5.867188 -1.308594 C 5.625 -0.847656 5.277344 -0.492188 4.820313 -0.238281 C 4.359375 0.015625 3.859375 0.140625 3.316406 0.140625 C 2.441406 0.140625 1.734375 -0.136719 1.203125 -0.695313 C 0.664063 -1.253906 0.398438 -2.058594 0.398438 -3.109375 Z M 1.484375 -3.109375 C 1.480469 -2.308594 1.65625 -1.710938 2.003906 -1.320313 C 2.347656 -0.921875 2.785156 -0.726563 3.316406 -0.726563 C 3.839844 -0.726563 4.273438 -0.925781 4.621094 -1.324219 C 4.96875 -1.722656 5.144531 -2.328125 5.144531 -3.148438 C 5.144531 -3.914063 4.96875 -4.496094 4.617188 -4.894531 C 4.265625 -5.289063 3.832031 -5.488281 3.316406 -5.492188 C 2.785156 -5.488281 2.347656 -5.292969 2.003906 -4.898438 C 1.65625 -4.5 1.480469 -3.902344 1.484375 -3.109375 Z M 1.484375 -3.109375 "/>
</symbol>
<symbol overflow="visible" id="glyph0-4">
<path style="stroke:none;" d="M 0.789063 0 L 0.789063 -6.222656 L 1.742188 -6.222656 L 1.742188 -5.335938 C 2.195313 -6.019531 2.855469 -6.363281 3.71875 -6.363281 C 4.089844 -6.363281 4.433594 -6.292969 4.753906 -6.160156 C 5.066406 -6.023438 5.304688 -5.847656 5.460938 -5.632813 C 5.617188 -5.410156 5.726563 -5.152344 5.789063 -4.851563 C 5.828125 -4.65625 5.847656 -4.3125 5.847656 -3.828125 L 5.847656 0 L 4.792969 0 L 4.792969 -3.785156 C 4.792969 -4.214844 4.75 -4.535156 4.667969 -4.75 C 4.585938 -4.960938 4.441406 -5.128906 4.234375 -5.257813 C 4.023438 -5.382813 3.777344 -5.449219 3.5 -5.449219 C 3.046875 -5.449219 2.660156 -5.304688 2.332031 -5.019531 C 2.003906 -4.734375 1.839844 -4.195313 1.84375 -3.398438 L 1.84375 0 Z M 0.789063 0 "/>
</symbol>
<symbol overflow="visible" id="glyph0-5">
<path style="stroke:none;" d="M 4.46875 0 L 3.414063 0 L 3.414063 -6.71875 C 3.160156 -6.476563 2.828125 -6.234375 2.414063 -5.996094 C 2 -5.75 1.628906 -5.570313 1.304688 -5.449219 L 1.304688 -6.46875 C 1.894531 -6.742188 2.410156 -7.078125 2.851563 -7.476563 C 3.292969 -7.871094 3.605469 -8.253906 3.789063 -8.625 L 4.46875 -8.625 Z M 4.46875 0 "/>
</symbol>
<symbol overflow="visible" id="glyph0-6">
<path style="stroke:none;" d="M 6.039063 -1.015625 L 6.039063 0 L 0.363281 0 C 0.355469 -0.253906 0.394531 -0.496094 0.484375 -0.734375 C 0.628906 -1.117188 0.859375 -1.5 1.179688 -1.875 C 1.492188 -2.25 1.953125 -2.683594 2.5625 -3.175781 C 3.492188 -3.941406 4.125 -4.546875 4.453125 -4.992188 C 4.78125 -5.4375 4.945313 -5.859375 4.945313 -6.265625 C 4.945313 -6.679688 4.792969 -7.03125 4.496094 -7.320313 C 4.191406 -7.601563 3.804688 -7.746094 3.328125 -7.75 C 2.820313 -7.746094 2.414063 -7.59375 2.109375 -7.292969 C 1.804688 -6.984375 1.648438 -6.5625 1.648438 -6.03125 L 0.5625 -6.140625 C 0.632813 -6.945313 0.910156 -7.558594 1.398438 -7.988281 C 1.878906 -8.410156 2.53125 -8.625 3.351563 -8.625 C 4.171875 -8.625 4.824219 -8.394531 5.308594 -7.9375 C 5.789063 -7.480469 6.027344 -6.914063 6.03125 -6.242188 C 6.027344 -5.894531 5.957031 -5.558594 5.820313 -5.226563 C 5.675781 -4.890625 5.441406 -4.539063 5.117188 -4.175781 C 4.789063 -3.804688 4.25 -3.300781 3.492188 -2.664063 C 2.859375 -2.128906 2.453125 -1.769531 2.273438 -1.582031 C 2.09375 -1.394531 1.945313 -1.203125 1.828125 -1.015625 Z M 6.039063 -1.015625 "/>
</symbol>
<symbol overflow="visible" id="glyph0-7">
<path style="stroke:none;" d="M 3.878906 0 L 3.878906 -2.054688 L 0.152344 -2.054688 L 0.152344 -3.023438 L 4.070313 -8.589844 L 4.933594 -8.589844 L 4.933594 -3.023438 L 6.09375 -3.023438 L 6.09375 -2.054688 L 4.933594 -2.054688 L 4.933594 0 Z M 3.878906 -3.023438 L 3.878906 -6.898438 L 1.1875 -3.023438 Z M 3.878906 -3.023438 "/>
</symbol>
<symbol overflow="visible" id="glyph0-8">
<path style="stroke:none;" d="M 0.796875 -5.546875 L 0.527344 -7.15625 L 0.527344 -8.589844 L 1.726563 -8.589844 L 1.726563 -7.15625 L 1.445313 -5.546875 Z M 0.796875 -5.546875 "/>
</symbol>
<symbol overflow="visible" id="glyph0-9">
<path style="stroke:none;" d="M 5.96875 -6.484375 L 4.921875 -6.40625 C 4.828125 -6.8125 4.695313 -7.113281 4.523438 -7.304688 C 4.234375 -7.605469 3.882813 -7.757813 3.46875 -7.757813 C 3.132813 -7.757813 2.835938 -7.664063 2.585938 -7.476563 C 2.25 -7.234375 1.988281 -6.878906 1.796875 -6.414063 C 1.605469 -5.949219 1.507813 -5.289063 1.5 -4.429688 C 1.753906 -4.8125 2.0625 -5.097656 2.433594 -5.289063 C 2.796875 -5.472656 3.183594 -5.566406 3.585938 -5.570313 C 4.289063 -5.566406 4.886719 -5.308594 5.382813 -4.792969 C 5.875 -4.277344 6.121094 -3.609375 6.125 -2.789063 C 6.121094 -2.25 6.003906 -1.746094 5.773438 -1.285156 C 5.539063 -0.820313 5.222656 -0.46875 4.816406 -0.222656 C 4.410156 0.0234375 3.949219 0.144531 3.433594 0.148438 C 2.554688 0.144531 1.835938 -0.175781 1.285156 -0.820313 C 0.726563 -1.46875 0.449219 -2.535156 0.453125 -4.019531 C 0.449219 -5.675781 0.757813 -6.882813 1.371094 -7.640625 C 1.902344 -8.296875 2.621094 -8.625 3.53125 -8.625 C 4.207031 -8.625 4.761719 -8.433594 5.195313 -8.054688 C 5.625 -7.675781 5.882813 -7.152344 5.96875 -6.484375 Z M 1.664063 -2.78125 C 1.664063 -2.417969 1.738281 -2.070313 1.894531 -1.738281 C 2.042969 -1.40625 2.261719 -1.152344 2.542969 -0.980469 C 2.820313 -0.800781 3.109375 -0.714844 3.414063 -0.71875 C 3.859375 -0.714844 4.242188 -0.894531 4.566406 -1.257813 C 4.882813 -1.613281 5.042969 -2.101563 5.046875 -2.726563 C 5.042969 -3.316406 4.886719 -3.785156 4.570313 -4.128906 C 4.25 -4.46875 3.851563 -4.640625 3.375 -4.640625 C 2.898438 -4.640625 2.492188 -4.46875 2.160156 -4.128906 C 1.828125 -3.785156 1.664063 -3.335938 1.664063 -2.78125 Z M 1.664063 -2.78125 "/>
</symbol>
<symbol overflow="visible" id="glyph0-10">
<path style="stroke:none;" d="M 2.121094 -4.65625 C 1.683594 -4.816406 1.359375 -5.046875 1.148438 -5.34375 C 0.9375 -5.640625 0.832031 -5.996094 0.832031 -6.410156 C 0.832031 -7.035156 1.054688 -7.558594 1.503906 -7.984375 C 1.953125 -8.410156 2.550781 -8.625 3.296875 -8.625 C 4.042969 -8.625 4.648438 -8.40625 5.109375 -7.972656 C 5.566406 -7.535156 5.792969 -7.003906 5.796875 -6.382813 C 5.792969 -5.976563 5.6875 -5.628906 5.480469 -5.339844 C 5.269531 -5.042969 4.953125 -4.816406 4.53125 -4.65625 C 5.054688 -4.480469 5.457031 -4.203125 5.734375 -3.824219 C 6.007813 -3.4375 6.144531 -2.980469 6.148438 -2.453125 C 6.144531 -1.714844 5.886719 -1.097656 5.367188 -0.601563 C 4.84375 -0.101563 4.160156 0.144531 3.316406 0.148438 C 2.46875 0.144531 1.785156 -0.101563 1.265625 -0.605469 C 0.742188 -1.105469 0.480469 -1.734375 0.484375 -2.484375 C 0.480469 -3.039063 0.621094 -3.503906 0.910156 -3.886719 C 1.191406 -4.261719 1.597656 -4.519531 2.121094 -4.65625 Z M 1.910156 -6.445313 C 1.910156 -6.039063 2.039063 -5.707031 2.300781 -5.449219 C 2.5625 -5.191406 2.902344 -5.0625 3.320313 -5.0625 C 3.722656 -5.0625 4.054688 -5.1875 4.320313 -5.445313 C 4.578125 -5.695313 4.710938 -6.011719 4.710938 -6.386719 C 4.710938 -6.773438 4.574219 -7.097656 4.308594 -7.363281 C 4.035156 -7.625 3.703125 -7.757813 3.3125 -7.757813 C 2.90625 -7.757813 2.574219 -7.628906 2.308594 -7.371094 C 2.042969 -7.113281 1.910156 -6.804688 1.910156 -6.445313 Z M 1.570313 -2.476563 C 1.570313 -2.175781 1.640625 -1.886719 1.785156 -1.605469 C 1.925781 -1.324219 2.136719 -1.105469 2.421875 -0.949219 C 2.699219 -0.792969 3.003906 -0.714844 3.328125 -0.71875 C 3.832031 -0.714844 4.246094 -0.878906 4.578125 -1.207031 C 4.902344 -1.53125 5.066406 -1.941406 5.070313 -2.445313 C 5.066406 -2.945313 4.898438 -3.367188 4.5625 -3.703125 C 4.222656 -4.035156 3.800781 -4.199219 3.292969 -4.203125 C 2.792969 -4.199219 2.378906 -4.035156 2.058594 -3.710938 C 1.730469 -3.378906 1.570313 -2.96875 1.570313 -2.476563 Z M 1.570313 -2.476563 "/>
</symbol>
<symbol overflow="visible" id="glyph0-11">
<path style="stroke:none;" d="M 0.5 -4.234375 C 0.496094 -5.246094 0.601563 -6.0625 0.8125 -6.6875 C 1.019531 -7.304688 1.328125 -7.785156 1.742188 -8.121094 C 2.148438 -8.457031 2.667969 -8.625 3.296875 -8.625 C 3.757813 -8.625 4.164063 -8.53125 4.511719 -8.347656 C 4.855469 -8.160156 5.140625 -7.890625 5.371094 -7.542969 C 5.59375 -7.191406 5.773438 -6.765625 5.90625 -6.265625 C 6.035156 -5.761719 6.097656 -5.085938 6.101563 -4.234375 C 6.097656 -3.226563 5.996094 -2.414063 5.789063 -1.796875 C 5.578125 -1.175781 5.265625 -0.695313 4.859375 -0.359375 C 4.445313 -0.0195313 3.925781 0.144531 3.296875 0.148438 C 2.464844 0.144531 1.816406 -0.148438 1.347656 -0.742188 C 0.78125 -1.457031 0.496094 -2.621094 0.5 -4.234375 Z M 1.582031 -4.234375 C 1.582031 -2.824219 1.746094 -1.886719 2.074219 -1.417969 C 2.402344 -0.949219 2.808594 -0.714844 3.296875 -0.71875 C 3.777344 -0.714844 4.183594 -0.949219 4.519531 -1.421875 C 4.847656 -1.886719 5.015625 -2.824219 5.015625 -4.234375 C 5.015625 -5.648438 4.847656 -6.589844 4.519531 -7.054688 C 4.183594 -7.515625 3.773438 -7.746094 3.289063 -7.75 C 2.800781 -7.746094 2.414063 -7.542969 2.125 -7.136719 C 1.761719 -6.613281 1.582031 -5.644531 1.582031 -4.234375 Z M 1.582031 -4.234375 "/>
</symbol>
<symbol overflow="visible" id="glyph0-12">
<path style="stroke:none;" d="M 0.65625 -1.984375 L 1.671875 -2.078125 C 1.75 -1.601563 1.914063 -1.257813 2.160156 -1.042969 C 2.398438 -0.824219 2.710938 -0.714844 3.09375 -0.71875 C 3.414063 -0.714844 3.695313 -0.789063 3.945313 -0.941406 C 4.1875 -1.085938 4.390625 -1.285156 4.546875 -1.535156 C 4.703125 -1.785156 4.832031 -2.121094 4.9375 -2.542969 C 5.042969 -2.964844 5.097656 -3.394531 5.097656 -3.832031 C 5.097656 -3.878906 5.09375 -3.949219 5.09375 -4.042969 C 4.875 -3.707031 4.585938 -3.433594 4.226563 -3.226563 C 3.859375 -3.015625 3.464844 -2.910156 3.039063 -2.914063 C 2.328125 -2.910156 1.726563 -3.167969 1.238281 -3.6875 C 0.742188 -4.199219 0.496094 -4.878906 0.5 -5.726563 C 0.496094 -6.59375 0.753906 -7.296875 1.269531 -7.828125 C 1.78125 -8.359375 2.425781 -8.625 3.199219 -8.625 C 3.757813 -8.625 4.265625 -8.472656 4.730469 -8.171875 C 5.191406 -7.871094 5.542969 -7.441406 5.785156 -6.886719 C 6.023438 -6.328125 6.144531 -5.523438 6.148438 -4.46875 C 6.144531 -3.371094 6.027344 -2.496094 5.789063 -1.847656 C 5.546875 -1.195313 5.191406 -0.703125 4.722656 -0.363281 C 4.253906 -0.0234375 3.703125 0.144531 3.070313 0.148438 C 2.398438 0.144531 1.847656 -0.0390625 1.421875 -0.410156 C 0.996094 -0.785156 0.742188 -1.308594 0.65625 -1.984375 Z M 4.976563 -5.777344 C 4.972656 -6.382813 4.8125 -6.863281 4.492188 -7.21875 C 4.167969 -7.570313 3.78125 -7.746094 3.328125 -7.75 C 2.859375 -7.746094 2.449219 -7.554688 2.101563 -7.175781 C 1.753906 -6.789063 1.582031 -6.292969 1.582031 -5.6875 C 1.582031 -5.136719 1.746094 -4.691406 2.074219 -4.355469 C 2.402344 -4.011719 2.808594 -3.84375 3.296875 -3.84375 C 3.785156 -3.84375 4.1875 -4.011719 4.503906 -4.355469 C 4.816406 -4.691406 4.972656 -5.167969 4.976563 -5.777344 Z M 4.976563 -5.777344 "/>
</symbol>
<symbol overflow="visible" id="glyph0-13">
<path style="stroke:none;" d="M 0.570313 -7.464844 L 0.570313 -8.476563 L 6.128906 -8.476563 L 6.128906 -7.65625 C 5.582031 -7.074219 5.039063 -6.300781 4.5 -5.335938 C 3.960938 -4.371094 3.546875 -3.378906 3.257813 -2.359375 C 3.046875 -1.636719 2.910156 -0.851563 2.851563 0 L 1.769531 0 C 1.78125 -0.675781 1.914063 -1.492188 2.167969 -2.449219 C 2.417969 -3.402344 2.78125 -4.324219 3.257813 -5.214844 C 3.734375 -6.105469 4.238281 -6.855469 4.773438 -7.464844 Z M 0.570313 -7.464844 "/>
</symbol>
<symbol overflow="visible" id="glyph0-14">
<path style="stroke:none;" d="M 1.089844 0 L 1.089844 -1.203125 L 2.289063 -1.203125 L 2.289063 0 Z M 1.089844 0 "/>
</symbol>
<symbol overflow="visible" id="glyph0-15">
<path style="stroke:none;" d="M 0.503906 -2.265625 L 1.558594 -2.40625 C 1.679688 -1.808594 1.882813 -1.378906 2.175781 -1.113281 C 2.464844 -0.847656 2.820313 -0.714844 3.242188 -0.71875 C 3.734375 -0.714844 4.152344 -0.886719 4.496094 -1.234375 C 4.832031 -1.574219 5.003906 -2 5.007813 -2.515625 C 5.003906 -2.996094 4.847656 -3.394531 4.535156 -3.710938 C 4.21875 -4.023438 3.816406 -4.183594 3.328125 -4.183594 C 3.128906 -4.183594 2.878906 -4.144531 2.585938 -4.066406 L 2.703125 -4.992188 C 2.765625 -4.984375 2.824219 -4.980469 2.871094 -4.980469 C 3.320313 -4.980469 3.722656 -5.097656 4.085938 -5.332031 C 4.441406 -5.566406 4.621094 -5.925781 4.625 -6.414063 C 4.621094 -6.800781 4.492188 -7.121094 4.230469 -7.375 C 3.964844 -7.628906 3.625 -7.757813 3.21875 -7.757813 C 2.804688 -7.757813 2.464844 -7.628906 2.191406 -7.371094 C 1.917969 -7.113281 1.742188 -6.726563 1.664063 -6.210938 L 0.609375 -6.398438 C 0.738281 -7.105469 1.03125 -7.652344 1.488281 -8.042969 C 1.941406 -8.429688 2.507813 -8.625 3.195313 -8.625 C 3.660156 -8.625 4.09375 -8.523438 4.488281 -8.324219 C 4.878906 -8.121094 5.179688 -7.847656 5.390625 -7.5 C 5.601563 -7.148438 5.707031 -6.777344 5.707031 -6.390625 C 5.707031 -6.019531 5.605469 -5.683594 5.40625 -5.378906 C 5.207031 -5.074219 4.914063 -4.832031 4.523438 -4.652344 C 5.03125 -4.535156 5.425781 -4.289063 5.707031 -3.921875 C 5.988281 -3.546875 6.128906 -3.085938 6.128906 -2.539063 C 6.128906 -1.785156 5.855469 -1.148438 5.308594 -0.628906 C 4.761719 -0.105469 4.070313 0.152344 3.234375 0.152344 C 2.476563 0.152344 1.847656 -0.0703125 1.355469 -0.519531 C 0.855469 -0.96875 0.574219 -1.550781 0.503906 -2.265625 Z M 0.503906 -2.265625 "/>
</symbol>
<symbol overflow="visible" id="glyph0-16">
<path style="stroke:none;" d="M 0.5 -2.25 L 1.605469 -2.34375 C 1.683594 -1.804688 1.871094 -1.398438 2.175781 -1.125 C 2.472656 -0.851563 2.835938 -0.714844 3.257813 -0.71875 C 3.765625 -0.714844 4.195313 -0.90625 4.546875 -1.292969 C 4.898438 -1.671875 5.074219 -2.179688 5.074219 -2.820313 C 5.074219 -3.414063 4.902344 -3.890625 4.566406 -4.242188 C 4.226563 -4.589844 3.785156 -4.761719 3.242188 -4.765625 C 2.898438 -4.761719 2.59375 -4.683594 2.320313 -4.53125 C 2.046875 -4.375 1.832031 -4.175781 1.675781 -3.929688 L 0.6875 -4.0625 L 1.515625 -8.472656 L 5.789063 -8.472656 L 5.789063 -7.464844 L 2.359375 -7.464844 L 1.898438 -5.15625 C 2.414063 -5.515625 2.953125 -5.695313 3.523438 -5.695313 C 4.269531 -5.695313 4.902344 -5.433594 5.421875 -4.914063 C 5.933594 -4.394531 6.191406 -3.726563 6.195313 -2.914063 C 6.191406 -2.132813 5.964844 -1.460938 5.515625 -0.898438 C 4.960938 -0.199219 4.210938 0.144531 3.257813 0.148438 C 2.476563 0.144531 1.835938 -0.0703125 1.34375 -0.507813 C 0.84375 -0.941406 0.5625 -1.523438 0.5 -2.25 Z M 0.5 -2.25 "/>
</symbol>
<symbol overflow="visible" id="glyph1-0">
<path style="stroke:none;" d="M 0 -1.5 L -7.5 -1.5 L -7.5 -7.5 L 0 -7.5 Z M -0.1875 -1.6875 L -0.1875 -7.3125 L -7.3125 -7.3125 L -7.3125 -1.6875 Z M -0.1875 -1.6875 "/>
</symbol>
<symbol overflow="visible" id="glyph1-1">
<path style="stroke:none;" d="M 0 -3.878906 L -2.054688 -3.878906 L -2.054688 -0.152344 L -3.023438 -0.152344 L -8.589844 -4.074219 L -8.589844 -4.933594 L -3.023438 -4.933594 L -3.023438 -6.09375 L -2.054688 -6.09375 L -2.054688 -4.933594 L 0 -4.933594 Z M -3.023438 -3.878906 L -6.898438 -3.878906 L -3.023438 -1.191406 Z M -3.023438 -3.878906 "/>
</symbol>
<symbol overflow="visible" id="glyph1-2">
<path style="stroke:none;" d="M -6.484375 -5.96875 L -6.40625 -4.921875 C -6.8125 -4.828125 -7.113281 -4.695313 -7.304688 -4.523438 C -7.605469 -4.238281 -7.757813 -3.886719 -7.757813 -3.46875 C -7.757813 -3.132813 -7.664063 -2.835938 -7.476563 -2.585938 C -7.234375 -2.25 -6.878906 -1.988281 -6.414063 -1.796875 C -5.949219 -1.605469 -5.289063 -1.507813 -4.429688 -1.5 C -4.8125 -1.753906 -5.097656 -2.0625 -5.289063 -2.433594 C -5.472656 -2.796875 -5.566406 -3.183594 -5.570313 -3.585938 C -5.566406 -4.289063 -5.308594 -4.886719 -4.792969 -5.382813 C -4.277344 -5.875 -3.609375 -6.121094 -2.789063 -6.125 C -2.25 -6.121094 -1.746094 -6.003906 -1.285156 -5.773438 C -0.816406 -5.539063 -0.460938 -5.222656 -0.21875 -4.816406 C 0.0273438 -4.410156 0.144531 -3.949219 0.148438 -3.433594 C 0.144531 -2.554688 -0.175781 -1.835938 -0.820313 -1.285156 C -1.46875 -0.726563 -2.535156 -0.449219 -4.019531 -0.453125 C -5.675781 -0.449219 -6.882813 -0.757813 -7.640625 -1.371094 C -8.296875 -1.90625 -8.625 -2.625 -8.625 -3.535156 C -8.625 -4.207031 -8.433594 -4.761719 -8.054688 -5.195313 C -7.675781 -5.625 -7.152344 -5.882813 -6.484375 -5.96875 Z M -2.78125 -1.664063 C -2.417969 -1.664063 -2.070313 -1.738281 -1.738281 -1.894531 C -1.40625 -2.042969 -1.152344 -2.261719 -0.980469 -2.542969 C -0.800781 -2.820313 -0.714844 -3.109375 -0.71875 -3.414063 C -0.714844 -3.859375 -0.894531 -4.242188 -1.257813 -4.566406 C -1.613281 -4.882813 -2.101563 -5.042969 -2.722656 -5.046875 C -3.3125 -5.042969 -3.78125 -4.886719 -4.125 -4.570313 C -4.46875 -4.25 -4.640625 -3.851563 -4.640625 -3.375 C -4.640625 -2.898438 -4.46875 -2.492188 -4.128906 -2.160156 C -3.785156 -1.828125 -3.335938 -1.664063 -2.78125 -1.664063 Z M -2.78125 -1.664063 "/>
</symbol>
<symbol overflow="visible" id="glyph1-3">
<path style="stroke:none;" d="M -1.984375 -0.65625 L -2.078125 -1.671875 C -1.601563 -1.75 -1.257813 -1.914063 -1.042969 -2.160156 C -0.824219 -2.398438 -0.714844 -2.710938 -0.71875 -3.09375 C -0.714844 -3.414063 -0.789063 -3.695313 -0.941406 -3.945313 C -1.085938 -4.1875 -1.285156 -4.390625 -1.535156 -4.546875 C -1.785156 -4.703125 -2.121094 -4.832031 -2.542969 -4.9375 C -2.964844 -5.042969 -3.394531 -5.097656 -3.832031 -5.097656 C -3.878906 -5.097656 -3.949219 -5.09375 -4.042969 -5.09375 C -3.707031 -4.875 -3.433594 -4.585938 -3.222656 -4.226563 C -3.011719 -3.859375 -2.90625 -3.464844 -2.914063 -3.039063 C -2.910156 -2.328125 -3.167969 -1.726563 -3.6875 -1.238281 C -4.199219 -0.742188 -4.878906 -0.496094 -5.726563 -0.5 C -6.59375 -0.496094 -7.296875 -0.753906 -7.828125 -1.269531 C -8.359375 -1.78125 -8.625 -2.425781 -8.625 -3.199219 C -8.625 -3.757813 -8.472656 -4.265625 -8.171875 -4.730469 C -7.871094 -5.191406 -7.441406 -5.542969 -6.886719 -5.785156 C -6.328125 -6.023438 -5.523438 -6.144531 -4.46875 -6.148438 C -3.371094 -6.144531 -2.496094 -6.027344 -1.847656 -5.789063 C -1.191406 -5.546875 -0.695313 -5.191406 -0.359375 -4.722656 C -0.0195313 -4.253906 0.144531 -3.703125 0.148438 -3.070313 C 0.144531 -2.398438 -0.0390625 -1.847656 -0.410156 -1.421875 C -0.785156 -0.996094 -1.308594 -0.742188 -1.984375 -0.65625 Z M -5.777344 -4.976563 C -6.382813 -4.972656 -6.863281 -4.8125 -7.21875 -4.492188 C -7.570313 -4.167969 -7.746094 -3.78125 -7.75 -3.328125 C -7.746094 -2.859375 -7.554688 -2.449219 -7.175781 -2.101563 C -6.789063 -1.753906 -6.292969 -1.582031 -5.6875 -1.582031 C -5.136719 -1.582031 -4.691406 -1.746094 -4.355469 -2.078125 C -4.011719 -2.40625 -3.84375 -2.8125 -3.84375 -3.300781 C -3.84375 -3.785156 -4.011719 -4.1875 -4.355469 -4.503906 C -4.691406 -4.816406 -5.167969 -4.972656 -5.777344 -4.976563 Z M -5.777344 -4.976563 "/>
</symbol>
<symbol overflow="visible" id="glyph1-4">
<path style="stroke:none;" d="M 0 -4.46875 L 0 -3.414063 L -6.71875 -3.417969 C -6.476563 -3.160156 -6.234375 -2.828125 -5.996094 -2.417969 C -5.75 -2.003906 -5.570313 -1.632813 -5.449219 -1.308594 L -6.46875 -1.308594 C -6.742188 -1.894531 -7.078125 -2.410156 -7.476563 -2.851563 C -7.871094 -3.292969 -8.253906 -3.605469 -8.625 -3.792969 L -8.625 -4.472656 Z M 0 -4.46875 "/>
</symbol>
<symbol overflow="visible" id="glyph1-5">
<path style="stroke:none;" d="M -1.011719 -6.039063 L 0 -6.039063 L 0 -0.363281 C -0.253906 -0.355469 -0.496094 -0.394531 -0.734375 -0.488281 C -1.117188 -0.628906 -1.5 -0.859375 -1.875 -1.179688 C -2.25 -1.496094 -2.683594 -1.957031 -3.175781 -2.5625 C -3.941406 -3.492188 -4.546875 -4.125 -4.992188 -4.453125 C -5.4375 -4.78125 -5.859375 -4.945313 -6.265625 -4.945313 C -6.679688 -4.945313 -7.03125 -4.792969 -7.320313 -4.496094 C -7.601563 -4.195313 -7.746094 -3.808594 -7.75 -3.328125 C -7.746094 -2.820313 -7.59375 -2.414063 -7.292969 -2.109375 C -6.984375 -1.804688 -6.5625 -1.648438 -6.03125 -1.648438 L -6.140625 -0.5625 C -6.945313 -0.636719 -7.558594 -0.914063 -7.988281 -1.402344 C -8.410156 -1.882813 -8.625 -2.535156 -8.625 -3.351563 C -8.625 -4.175781 -8.394531 -4.828125 -7.9375 -5.308594 C -7.480469 -5.789063 -6.914063 -6.027344 -6.242188 -6.03125 C -5.894531 -6.027344 -5.558594 -5.957031 -5.226563 -5.820313 C -4.890625 -5.675781 -4.539063 -5.441406 -4.175781 -5.117188 C -3.804688 -4.789063 -3.300781 -4.25 -2.664063 -3.492188 C -2.128906 -2.859375 -1.769531 -2.453125 -1.582031 -2.273438 C -1.394531 -2.09375 -1.203125 -1.945313 -1.011719 -1.828125 Z M -1.011719 -6.039063 "/>
</symbol>
<symbol overflow="visible" id="glyph1-6">
<path style="stroke:none;" d="M -4.234375 -0.5 C -5.246094 -0.496094 -6.0625 -0.601563 -6.6875 -0.8125 C -7.304688 -1.019531 -7.785156 -1.328125 -8.121094 -1.742188 C -8.457031 -2.152344 -8.625 -2.671875 -8.625 -3.300781 C -8.625 -3.757813 -8.53125 -4.164063 -8.347656 -4.511719 C -8.160156 -4.859375 -7.890625 -5.144531 -7.542969 -5.371094 C -7.191406 -5.59375 -6.765625 -5.773438 -6.265625 -5.90625 C -5.761719 -6.035156 -5.085938 -6.097656 -4.234375 -6.101563 C -3.222656 -6.097656 -2.410156 -5.996094 -1.792969 -5.789063 C -1.175781 -5.578125 -0.695313 -5.265625 -0.359375 -4.859375 C -0.0195313 -4.445313 0.144531 -3.925781 0.148438 -3.296875 C 0.144531 -2.464844 -0.148438 -1.816406 -0.742188 -1.347656 C -1.457031 -0.78125 -2.621094 -0.496094 -4.234375 -0.5 Z M -4.234375 -1.582031 C -2.824219 -1.582031 -1.886719 -1.746094 -1.417969 -2.074219 C -0.949219 -2.402344 -0.714844 -2.808594 -0.71875 -3.296875 C -0.714844 -3.777344 -0.949219 -4.183594 -1.421875 -4.519531 C -1.886719 -4.847656 -2.824219 -5.015625 -4.234375 -5.015625 C -5.648438 -5.015625 -6.589844 -4.847656 -7.054688 -4.519531 C -7.515625 -4.1875 -7.746094 -3.777344 -7.75 -3.289063 C -7.746094 -2.800781 -7.542969 -2.414063 -7.136719 -2.128906 C -6.613281 -1.761719 -5.644531 -1.582031 -4.234375 -1.582031 Z M -4.234375 -1.582031 "/>
</symbol>
<symbol overflow="visible" id="glyph1-7">
<path style="stroke:none;" d=""/>
</symbol>
<symbol overflow="visible" id="glyph1-8">
<path style="stroke:none;" d="M -3.367188 -4.945313 L -4.375 -4.945313 L -4.382813 -8.585938 L -1.195313 -8.585938 C -0.75 -8.023438 -0.414063 -7.449219 -0.1875 -6.855469 C 0.0351563 -6.261719 0.144531 -5.652344 0.148438 -5.027344 C 0.144531 -4.183594 -0.03125 -3.414063 -0.394531 -2.726563 C -0.753906 -2.035156 -1.277344 -1.515625 -1.960938 -1.167969 C -2.644531 -0.8125 -3.410156 -0.636719 -4.253906 -0.640625 C -5.089844 -0.636719 -5.867188 -0.8125 -6.59375 -1.164063 C -7.3125 -1.511719 -7.851563 -2.015625 -8.207031 -2.671875 C -8.554688 -3.328125 -8.730469 -4.082031 -8.734375 -4.941406 C -8.730469 -5.558594 -8.628906 -6.121094 -8.433594 -6.625 C -8.230469 -7.125 -7.953125 -7.519531 -7.59375 -7.804688 C -7.234375 -8.089844 -6.765625 -8.304688 -6.1875 -8.453125 L -5.90625 -7.429688 C -6.34375 -7.296875 -6.6875 -7.136719 -6.9375 -6.949219 C -7.1875 -6.757813 -7.386719 -6.484375 -7.539063 -6.128906 C -7.6875 -5.773438 -7.761719 -5.378906 -7.765625 -4.945313 C -7.761719 -4.425781 -7.683594 -3.976563 -7.527344 -3.597656 C -7.367188 -3.21875 -7.160156 -2.910156 -6.902344 -2.679688 C -6.644531 -2.445313 -6.359375 -2.265625 -6.054688 -2.140625 C -5.519531 -1.917969 -4.945313 -1.808594 -4.324219 -1.8125 C -3.558594 -1.808594 -2.917969 -1.941406 -2.402344 -2.207031 C -1.886719 -2.46875 -1.503906 -2.851563 -1.253906 -3.355469 C -1.003906 -3.859375 -0.878906 -4.394531 -0.878906 -4.960938 C -0.878906 -5.453125 -0.972656 -5.933594 -1.160156 -6.40625 C -1.347656 -6.871094 -1.550781 -7.226563 -1.769531 -7.46875 L -3.367188 -7.46875 Z M -3.367188 -4.945313 "/>
</symbol>
<symbol overflow="visible" id="glyph1-9">
<path style="stroke:none;" d="M -3.753906 -6.34375 L -1.324219 -0.65625 L -2.375 -0.65625 L -4.242188 -5.164063 L -6.09375 -0.65625 L -7.140625 -0.65625 L -4.742188 -6.34375 Z M -3.753906 -6.34375 "/>
</symbol>
<symbol overflow="visible" id="glyph1-10">
<path style="stroke:none;" d="M 0 0.015625 L -8.589844 -3.28125 L -8.589844 -4.507813 L 0 -8.023438 L 0 -6.726563 L -2.601563 -5.726563 L -2.601563 -2.132813 L 0 -1.1875 Z M -3.527344 -2.460938 L -3.527344 -5.375 L -5.90625 -4.476563 C -6.628906 -4.203125 -7.222656 -4 -7.6875 -3.867188 C -7.132813 -3.757813 -6.585938 -3.601563 -6.046875 -3.40625 Z M -3.527344 -2.460938 "/>
</symbol>
<symbol overflow="visible" id="glyph1-11">
<path style="stroke:none;" d="M 0 -3.109375 L -7.578125 -3.113281 L -7.578125 -0.28125 L -8.589844 -0.28125 L -8.589844 -7.089844 L -7.578125 -7.089844 L -7.578125 -4.25 L 0 -4.25 Z M 0 -3.109375 "/>
</symbol>
<symbol overflow="visible" id="glyph1-12">
<path style="stroke:none;" d="M -3.011719 -7.054688 L -2.722656 -8.191406 C -1.789063 -7.953125 -1.078125 -7.523438 -0.585938 -6.90625 C -0.0976563 -6.285156 0.144531 -5.527344 0.148438 -4.632813 C 0.144531 -3.707031 -0.0390625 -2.953125 -0.417969 -2.375 C -0.792969 -1.792969 -1.339844 -1.351563 -2.054688 -1.050781 C -2.769531 -0.746094 -3.539063 -0.597656 -4.359375 -0.597656 C -5.253906 -0.597656 -6.03125 -0.765625 -6.699219 -1.109375 C -7.363281 -1.449219 -7.871094 -1.9375 -8.214844 -2.570313 C -8.558594 -3.199219 -8.730469 -3.894531 -8.734375 -4.652344 C -8.730469 -5.511719 -8.511719 -6.234375 -8.078125 -6.820313 C -7.636719 -7.40625 -7.023438 -7.8125 -6.234375 -8.046875 L -5.96875 -6.925781 C -6.589844 -6.722656 -7.046875 -6.433594 -7.335938 -6.058594 C -7.621094 -5.679688 -7.761719 -5.203125 -7.765625 -4.628906 C -7.761719 -3.96875 -7.605469 -3.414063 -7.289063 -2.972656 C -6.96875 -2.527344 -6.542969 -2.21875 -6.011719 -2.039063 C -5.480469 -1.859375 -4.929688 -1.769531 -4.367188 -1.769531 C -3.632813 -1.769531 -2.996094 -1.875 -2.449219 -2.085938 C -1.902344 -2.296875 -1.492188 -2.628906 -1.226563 -3.082031 C -0.953125 -3.53125 -0.820313 -4.015625 -0.824219 -4.539063 C -0.820313 -5.175781 -1.003906 -5.714844 -1.375 -6.15625 C -1.738281 -6.597656 -2.285156 -6.898438 -3.011719 -7.054688 Z M -3.011719 -7.054688 "/>
</symbol>
</g>
</defs>
<g id="surface26">
<path style="fill-rule:nonzero;fill:rgb(80%,47.45098%,65.490196%);fill-opacity:1;stroke-width:0.75;stroke-linecap:round;stroke-linejoin:round;stroke:rgb(0%,0%,0%);stroke-opacity:1;stroke-miterlimit:10;" d="M 272.785156 313.589844 L 280.761719 313.589844 L 280.761719 305.613281 L 272.785156 305.613281 Z M 272.785156 313.589844 "/>
<g style="fill:rgb(0%,0%,0%);fill-opacity:1;">
  <use xlink:href="#glyph0-1" x="286.375" y="313.894531"/>
  <use xlink:href="#glyph0-2" x="294.378906" y="313.894531"/>
  <use xlink:href="#glyph0-3" x="300.378906" y="313.894531"/>
  <use xlink:href="#glyph0-4" x="307.052734" y="313.894531"/>
  <use xlink:href="#glyph0-5" x="313.726563" y="313.894531"/>
</g>
<path style="fill-rule:nonzero;fill:rgb(31.764706%,77.647059%,90.196078%);fill-opacity:1;stroke-width:0.75;stroke-linecap:round;stroke-linejoin:round;stroke:rgb(0%,0%,0%);stroke-opacity:1;stroke-miterlimit:10;" d="M 329.613281 313.589844 L 337.589844 313.589844 L 337.589844 305.613281 L 329.613281 305.613281 Z M 329.613281 313.589844 "/>
<g style="fill:rgb(0%,0%,0%);fill-opacity:1;">
  <use xlink:href="#glyph0-1" x="343.199219" y="313.894531"/>
  <use xlink:href="#glyph0-2" x="351.203125" y="313.894531"/>
  <use xlink:href="#glyph0-3" x="357.203125" y="313.894531"/>
  <use xlink:href="#glyph0-4" x="363.876953" y="313.894531"/>
  <use xlink:href="#glyph0-6" x="370.550781" y="313.894531"/>
</g>
<path style="fill:none;stroke-width:0.75;stroke-linecap:round;stroke-linejoin:round;stroke:rgb(0%,0%,0%);stroke-opacity:1;stroke-miterlimit:10;" d="M 64.800781 266.398438 L 612 266.398438 "/>
<path style="fill:none;stroke-width:0.75;stroke-linecap:round;stroke-linejoin:round;stroke:rgb(0%,0%,0%);stroke-opacity:1;stroke-miterlimit:10;" d="M 64.800781 266.398438 L 64.800781 273.601563 "/>
<path style="fill:none;stroke-width:0.75;stroke-linecap:round;stroke-linejoin:round;stroke:rgb(0%,0%,0%);stroke-opacity:1;stroke-miterlimit:10;" d="M 133.199219 266.398438 L 133.199219 273.601563 "/>
<path style="fill:none;stroke-width:0.75;stroke-linecap:round;stroke-linejoin:round;stroke:rgb(0%,0%,0%);stroke-opacity:1;stroke-miterlimit:10;" d="M 201.601563 266.398438 L 201.601563 273.601563 "/>
<path style="fill:none;stroke-width:0.75;stroke-linecap:round;stroke-linejoin:round;stroke:rgb(0%,0%,0%);stroke-opacity:1;stroke-miterlimit:10;" d="M 270 266.398438 L 270 273.601563 "/>
<path style="fill:none;stroke-width:0.75;stroke-linecap:round;stroke-linejoin:round;stroke:rgb(0%,0%,0%);stroke-opacity:1;stroke-miterlimit:10;" d="M 338.398438 266.398438 L 338.398438 273.601563 "/>
<path style="fill:none;stroke-width:0.75;stroke-linecap:round;stroke-linejoin:round;stroke:rgb(0%,0%,0%);stroke-opacity:1;stroke-miterlimit:10;" d="M 406.800781 266.398438 L 406.800781 273.601563 "/>
<path style="fill:none;stroke-width:0.75;stroke-linecap:round;stroke-linejoin:round;stroke:rgb(0%,0%,0%);stroke-opacity:1;stroke-miterlimit:10;" d="M 475.199219 266.398438 L 475.199219 273.601563 "/>
<path style="fill:none;stroke-width:0.75;stroke-linecap:round;stroke-linejoin:round;stroke:rgb(0%,0%,0%);stroke-opacity:1;stroke-miterlimit:10;" d="M 543.601563 266.398438 L 543.601563 273.601563 "/>
<path style="fill:none;stroke-width:0.75;stroke-linecap:round;stroke-linejoin:round;stroke:rgb(0%,0%,0%);stroke-opacity:1;stroke-miterlimit:10;" d="M 612 266.398438 L 612 273.601563 "/>
<g style="fill:rgb(0%,0%,0%);fill-opacity:1;">
  <use xlink:href="#glyph0-7" x="39.152344" y="292.296875"/>
  <use xlink:href="#glyph0-8" x="45.826172" y="292.296875"/>
  <use xlink:href="#glyph0-9" x="48.117188" y="292.296875"/>
  <use xlink:href="#glyph0-10" x="54.791016" y="292.296875"/>
  <use xlink:href="#glyph0-9" x="61.464844" y="292.296875"/>
  <use xlink:href="#glyph0-8" x="68.138672" y="292.296875"/>
  <use xlink:href="#glyph0-11" x="70.429688" y="292.296875"/>
  <use xlink:href="#glyph0-11" x="77.103516" y="292.296875"/>
  <use xlink:href="#glyph0-11" x="83.777344" y="292.296875"/>
</g>
<g style="fill:rgb(0%,0%,0%);fill-opacity:1;">
  <use xlink:href="#glyph0-7" x="107.550781" y="292.296875"/>
  <use xlink:href="#glyph0-8" x="114.224609" y="292.296875"/>
  <use xlink:href="#glyph0-9" x="116.515625" y="292.296875"/>
  <use xlink:href="#glyph0-10" x="123.189453" y="292.296875"/>
  <use xlink:href="#glyph0-10" x="129.863281" y="292.296875"/>
  <use xlink:href="#glyph0-8" x="136.537109" y="292.296875"/>
  <use xlink:href="#glyph0-11" x="138.828125" y="292.296875"/>
  <use xlink:href="#glyph0-11" x="145.501953" y="292.296875"/>
  <use xlink:href="#glyph0-11" x="152.175781" y="292.296875"/>
</g>
<g style="fill:rgb(0%,0%,0%);fill-opacity:1;">
  <use xlink:href="#glyph0-7" x="175.953125" y="292.296875"/>
  <use xlink:href="#glyph0-8" x="182.626953" y="292.296875"/>
  <use xlink:href="#glyph0-9" x="184.917969" y="292.296875"/>
  <use xlink:href="#glyph0-12" x="191.591797" y="292.296875"/>
  <use xlink:href="#glyph0-11" x="198.265625" y="292.296875"/>
  <use xlink:href="#glyph0-8" x="204.939453" y="292.296875"/>
  <use xlink:href="#glyph0-11" x="207.230469" y="292.296875"/>
  <use xlink:href="#glyph0-11" x="213.904297" y="292.296875"/>
  <use xlink:href="#glyph0-11" x="220.578125" y="292.296875"/>
</g>
<g style="fill:rgb(0%,0%,0%);fill-opacity:1;">
  <use xlink:href="#glyph0-7" x="244.351563" y="292.296875"/>
  <use xlink:href="#glyph0-8" x="251.025391" y="292.296875"/>
  <use xlink:href="#glyph0-9" x="253.316406" y="292.296875"/>
  <use xlink:href="#glyph0-12" x="259.990234" y="292.296875"/>
  <use xlink:href="#glyph0-6" x="266.664063" y="292.296875"/>
  <use xlink:href="#glyph0-8" x="273.337891" y="292.296875"/>
  <use xlink:href="#glyph0-11" x="275.628906" y="292.296875"/>
  <use xlink:href="#glyph0-11" x="282.302734" y="292.296875"/>
  <use xlink:href="#glyph0-11" x="288.976563" y="292.296875"/>
</g>
<g style="fill:rgb(0%,0%,0%);fill-opacity:1;">
  <use xlink:href="#glyph0-7" x="312.75" y="292.296875"/>
  <use xlink:href="#glyph0-8" x="319.423828" y="292.296875"/>
  <use xlink:href="#glyph0-9" x="321.714844" y="292.296875"/>
  <use xlink:href="#glyph0-12" x="328.388672" y="292.296875"/>
  <use xlink:href="#glyph0-7" x="335.0625" y="292.296875"/>
  <use xlink:href="#glyph0-8" x="341.736328" y="292.296875"/>
  <use xlink:href="#glyph0-11" x="344.027344" y="292.296875"/>
  <use xlink:href="#glyph0-11" x="350.701172" y="292.296875"/>
  <use xlink:href="#glyph0-11" x="357.375" y="292.296875"/>
</g>
<g style="fill:rgb(0%,0%,0%);fill-opacity:1;">
  <use xlink:href="#glyph0-7" x="381.152344" y="292.296875"/>
  <use xlink:href="#glyph0-8" x="387.826172" y="292.296875"/>
  <use xlink:href="#glyph0-9" x="390.117188" y="292.296875"/>
  <use xlink:href="#glyph0-12" x="396.791016" y="292.296875"/>
  <use xlink:href="#glyph0-9" x="403.464844" y="292.296875"/>
  <use xlink:href="#glyph0-8" x="410.138672" y="292.296875"/>
  <use xlink:href="#glyph0-11" x="412.429688" y="292.296875"/>
  <use xlink:href="#glyph0-11" x="419.103516" y="292.296875"/>
  <use xlink:href="#glyph0-11" x="425.777344" y="292.296875"/>
</g>
<g style="fill:rgb(0%,0%,0%);fill-opacity:1;">
  <use xlink:href="#glyph0-7" x="449.550781" y="292.296875"/>
  <use xlink:href="#glyph0-8" x="456.224609" y="292.296875"/>
  <use xlink:href="#glyph0-9" x="458.515625" y="292.296875"/>
  <use xlink:href="#glyph0-12" x="465.189453" y="292.296875"/>
  <use xlink:href="#glyph0-10" x="471.863281" y="292.296875"/>
  <use xlink:href="#glyph0-8" x="478.537109" y="292.296875"/>
  <use xlink:href="#glyph0-11" x="480.828125" y="292.296875"/>
  <use xlink:href="#glyph0-11" x="487.501953" y="292.296875"/>
  <use xlink:href="#glyph0-11" x="494.175781" y="292.296875"/>
</g>
<g style="fill:rgb(0%,0%,0%);fill-opacity:1;">
  <use xlink:href="#glyph0-7" x="517.953125" y="292.296875"/>
  <use xlink:href="#glyph0-8" x="524.626953" y="292.296875"/>
  <use xlink:href="#glyph0-13" x="526.917969" y="292.296875"/>
  <use xlink:href="#glyph0-11" x="533.591797" y="292.296875"/>
  <use xlink:href="#glyph0-11" x="540.265625" y="292.296875"/>
  <use xlink:href="#glyph0-8" x="546.939453" y="292.296875"/>
  <use xlink:href="#glyph0-11" x="549.230469" y="292.296875"/>
  <use xlink:href="#glyph0-11" x="555.904297" y="292.296875"/>
  <use xlink:href="#glyph0-11" x="562.578125" y="292.296875"/>
</g>
<g style="fill:rgb(0%,0%,0%);fill-opacity:1;">
  <use xlink:href="#glyph0-7" x="586.351563" y="292.296875"/>
  <use xlink:href="#glyph0-8" x="593.025391" y="292.296875"/>
  <use xlink:href="#glyph0-13" x="595.316406" y="292.296875"/>
  <use xlink:href="#glyph0-11" x="601.990234" y="292.296875"/>
  <use xlink:href="#glyph0-6" x="608.664063" y="292.296875"/>
  <use xlink:href="#glyph0-8" x="615.337891" y="292.296875"/>
  <use xlink:href="#glyph0-11" x="617.628906" y="292.296875"/>
  <use xlink:href="#glyph0-11" x="624.302734" y="292.296875"/>
  <use xlink:href="#glyph0-11" x="630.976563" y="292.296875"/>
</g>
<path style="fill:none;stroke-width:0.75;stroke-linecap:round;stroke-linejoin:round;stroke:rgb(0%,0%,0%);stroke-opacity:1;stroke-miterlimit:10;" d="M 64.800781 254.707031 L 612 254.707031 "/>
<path style="fill-rule:nonzero;fill:rgb(80%,47.45098%,65.490196%);fill-opacity:1;stroke-width:0.75;stroke-linecap:round;stroke-linejoin:round;stroke:rgb(0%,0%,0%);stroke-opacity:1;stroke-miterlimit:10;" d="M 80.390625 264.03125 L 82.3125 264.03125 L 82.3125 245.382813 L 80.390625 245.382813 Z M 80.390625 264.03125 "/>
<path style="fill-rule:nonzero;fill:rgb(31.764706%,77.647059%,90.196078%);fill-opacity:1;stroke-width:0.75;stroke-linecap:round;stroke-linejoin:round;stroke:rgb(0%,0%,0%);stroke-opacity:1;stroke-miterlimit:10;" d="M 516.613281 264.03125 L 597.914063 264.03125 L 597.914063 245.382813 L 516.613281 245.382813 Z M 516.613281 264.03125 "/>
<path style="fill:none;stroke-width:0.75;stroke-linecap:round;stroke-linejoin:round;stroke:rgb(0%,0%,0%);stroke-opacity:1;stroke-miterlimit:10;" d="M 52.640625 228.808594 L 52.640625 110.40625 "/>
<path style="fill:none;stroke-width:0.75;stroke-linecap:round;stroke-linejoin:round;stroke:rgb(0%,0%,0%);stroke-opacity:1;stroke-miterlimit:10;" d="M 52.640625 228.808594 L 45.441406 228.808594 "/>
<path style="fill:none;stroke-width:0.75;stroke-linecap:round;stroke-linejoin:round;stroke:rgb(0%,0%,0%);stroke-opacity:1;stroke-miterlimit:10;" d="M 52.640625 216.96875 L 45.441406 216.96875 "/>
<path style="fill:none;stroke-width:0.75;stroke-linecap:round;stroke-linejoin:round;stroke:rgb(0%,0%,0%);stroke-opacity:1;stroke-miterlimit:10;" d="M 52.640625 205.128906 L 45.441406 205.128906 "/>
<path style="fill:none;stroke-width:0.75;stroke-linecap:round;stroke-linejoin:round;stroke:rgb(0%,0%,0%);stroke-opacity:1;stroke-miterlimit:10;" d="M 52.640625 193.289063 L 45.441406 193.289063 "/>
<path style="fill:none;stroke-width:0.75;stroke-linecap:round;stroke-linejoin:round;stroke:rgb(0%,0%,0%);stroke-opacity:1;stroke-miterlimit:10;" d="M 52.640625 181.449219 L 45.441406 181.449219 "/>
<path style="fill:none;stroke-width:0.75;stroke-linecap:round;stroke-linejoin:round;stroke:rgb(0%,0%,0%);stroke-opacity:1;stroke-miterlimit:10;" d="M 52.640625 169.609375 L 45.441406 169.609375 "/>
<path style="fill:none;stroke-width:0.75;stroke-linecap:round;stroke-linejoin:round;stroke:rgb(0%,0%,0%);stroke-opacity:1;stroke-miterlimit:10;" d="M 52.640625 157.769531 L 45.441406 157.769531 "/>
<path style="fill:none;stroke-width:0.75;stroke-linecap:round;stroke-linejoin:round;stroke:rgb(0%,0%,0%);stroke-opacity:1;stroke-miterlimit:10;" d="M 52.640625 145.929688 L 45.441406 145.929688 "/>
<path style="fill:none;stroke-width:0.75;stroke-linecap:round;stroke-linejoin:round;stroke:rgb(0%,0%,0%);stroke-opacity:1;stroke-miterlimit:10;" d="M 52.640625 134.089844 L 45.441406 134.089844 "/>
<path style="fill:none;stroke-width:0.75;stroke-linecap:round;stroke-linejoin:round;stroke:rgb(0%,0%,0%);stroke-opacity:1;stroke-miterlimit:10;" d="M 52.640625 122.246094 L 45.441406 122.246094 "/>
<path style="fill:none;stroke-width:0.75;stroke-linecap:round;stroke-linejoin:round;stroke:rgb(0%,0%,0%);stroke-opacity:1;stroke-miterlimit:10;" d="M 52.640625 110.40625 L 45.441406 110.40625 "/>
<g style="fill:rgb(0%,0%,0%);fill-opacity:1;">
  <use xlink:href="#glyph0-11" x="14.882813" y="233.101563"/>
  <use xlink:href="#glyph0-14" x="21.556641" y="233.101563"/>
  <use xlink:href="#glyph0-11" x="24.890625" y="233.101563"/>
  <use xlink:href="#glyph0-11" x="31.564453" y="233.101563"/>
</g>
<g style="fill:rgb(0%,0%,0%);fill-opacity:1;">
  <use xlink:href="#glyph0-11" x="14.882813" y="221.261719"/>
  <use xlink:href="#glyph0-14" x="21.556641" y="221.261719"/>
  <use xlink:href="#glyph0-5" x="24.890625" y="221.261719"/>
  <use xlink:href="#glyph0-11" x="31.564453" y="221.261719"/>
</g>
<g style="fill:rgb(0%,0%,0%);fill-opacity:1;">
  <use xlink:href="#glyph0-11" x="14.882813" y="209.421875"/>
  <use xlink:href="#glyph0-14" x="21.556641" y="209.421875"/>
  <use xlink:href="#glyph0-6" x="24.890625" y="209.421875"/>
  <use xlink:href="#glyph0-11" x="31.564453" y="209.421875"/>
</g>
<g style="fill:rgb(0%,0%,0%);fill-opacity:1;">
  <use xlink:href="#glyph0-11" x="14.882813" y="197.582031"/>
  <use xlink:href="#glyph0-14" x="21.556641" y="197.582031"/>
  <use xlink:href="#glyph0-15" x="24.890625" y="197.582031"/>
  <use xlink:href="#glyph0-11" x="31.564453" y="197.582031"/>
</g>
<g style="fill:rgb(0%,0%,0%);fill-opacity:1;">
  <use xlink:href="#glyph0-11" x="14.882813" y="185.742188"/>
  <use xlink:href="#glyph0-14" x="21.556641" y="185.742188"/>
  <use xlink:href="#glyph0-7" x="24.890625" y="185.742188"/>
  <use xlink:href="#glyph0-11" x="31.564453" y="185.742188"/>
</g>
<g style="fill:rgb(0%,0%,0%);fill-opacity:1;">
  <use xlink:href="#glyph0-11" x="14.882813" y="173.902344"/>
  <use xlink:href="#glyph0-14" x="21.556641" y="173.902344"/>
  <use xlink:href="#glyph0-16" x="24.890625" y="173.902344"/>
  <use xlink:href="#glyph0-11" x="31.564453" y="173.902344"/>
</g>
<g style="fill:rgb(0%,0%,0%);fill-opacity:1;">
  <use xlink:href="#glyph0-11" x="14.882813" y="162.0625"/>
  <use xlink:href="#glyph0-14" x="21.556641" y="162.0625"/>
  <use xlink:href="#glyph0-9" x="24.890625" y="162.0625"/>
  <use xlink:href="#glyph0-11" x="31.564453" y="162.0625"/>
</g>
<g style="fill:rgb(0%,0%,0%);fill-opacity:1;">
  <use xlink:href="#glyph0-11" x="14.882813" y="150.222656"/>
  <use xlink:href="#glyph0-14" x="21.556641" y="150.222656"/>
  <use xlink:href="#glyph0-13" x="24.890625" y="150.222656"/>
  <use xlink:href="#glyph0-11" x="31.564453" y="150.222656"/>
</g>
<g style="fill:rgb(0%,0%,0%);fill-opacity:1;">
  <use xlink:href="#glyph0-11" x="14.882813" y="138.382813"/>
  <use xlink:href="#glyph0-14" x="21.556641" y="138.382813"/>
  <use xlink:href="#glyph0-10" x="24.890625" y="138.382813"/>
  <use xlink:href="#glyph0-11" x="31.564453" y="138.382813"/>
</g>
<g style="fill:rgb(0%,0%,0%);fill-opacity:1;">
  <use xlink:href="#glyph0-11" x="14.882813" y="126.542969"/>
  <use xlink:href="#glyph0-14" x="21.556641" y="126.542969"/>
  <use xlink:href="#glyph0-12" x="24.890625" y="126.542969"/>
  <use xlink:href="#glyph0-11" x="31.564453" y="126.542969"/>
</g>
<g style="fill:rgb(0%,0%,0%);fill-opacity:1;">
  <use xlink:href="#glyph0-5" x="14.882813" y="114.703125"/>
  <use xlink:href="#glyph0-14" x="21.556641" y="114.703125"/>
  <use xlink:href="#glyph0-11" x="24.890625" y="114.703125"/>
  <use xlink:href="#glyph0-11" x="31.564453" y="114.703125"/>
</g>
<path style="fill:none;stroke-width:0.75;stroke-linecap:round;stroke-linejoin:round;stroke:rgb(0%,0%,0%);stroke-opacity:1;stroke-miterlimit:10;" d="M 267.265625 254.707031 L 267.265625 238.28125 L 253.886719 228.808594 L 253.886719 169.609375 "/>
<path style="fill:none;stroke-width:0.75;stroke-linecap:round;stroke-linejoin:round;stroke:rgb(80%,80%,80%);stroke-opacity:1;stroke-dasharray:0.75,2.25;stroke-miterlimit:10;" d="M 253.886719 157.769531 L 253.886719 104.488281 "/>
<path style="fill-rule:nonzero;fill:rgb(0%,44.705882%,69.803922%);fill-opacity:0.298039;stroke-width:0.75;stroke-linecap:round;stroke-linejoin:round;stroke:rgb(0%,0%,0%);stroke-opacity:0.298039;stroke-miterlimit:10;" d="M 253.886719 157.769531 L 253.511719 157.78125 L 253.136719 157.816406 L 252.769531 157.875 L 252.402344 157.957031 L 252.039063 158.0625 L 251.6875 158.191406 L 251.34375 158.34375 L 251.007813 158.515625 L 250.6875 158.707031 L 250.378906 158.921875 L 250.082031 159.152344 L 249.800781 159.402344 L 249.539063 159.671875 L 249.292969 159.957031 L 249.066406 160.253906 L 248.859375 160.566406 L 248.667969 160.890625 L 248.503906 161.230469 L 248.359375 161.574219 L 248.234375 161.929688 L 248.136719 162.292969 L 248.058594 162.660156 L 248.003906 163.03125 L 247.976563 163.40625 L 247.96875 163.78125 L 247.988281 164.15625 L 248.027344 164.53125 L 248.09375 164.902344 L 248.183594 165.265625 L 248.292969 165.625 L 248.425781 165.976563 L 248.582031 166.316406 L 248.761719 166.648438 L 248.960938 166.96875 L 249.175781 167.273438 L 249.414063 167.566406 L 249.667969 167.839844 L 249.941406 168.101563 L 250.226563 168.339844 L 250.53125 168.5625 L 250.847656 168.765625 L 251.175781 168.949219 L 251.515625 169.113281 L 251.863281 169.25 L 252.21875 169.367188 L 252.582031 169.460938 L 252.953125 169.535156 L 253.324219 169.582031 L 253.699219 169.605469 L 254.074219 169.605469 L 254.449219 169.582031 L 254.824219 169.535156 L 255.191406 169.460938 L 255.554688 169.367188 L 255.914063 169.25 L 256.261719 169.113281 L 256.601563 168.949219 L 256.929688 168.765625 L 257.246094 168.5625 L 257.546875 168.339844 L 257.835938 168.101563 L 258.105469 167.839844 L 258.363281 167.566406 L 258.597656 167.273438 L 258.816406 166.96875 L 259.015625 166.648438 L 259.191406 166.316406 L 259.347656 165.976563 L 259.480469 165.625 L 259.59375 165.265625 L 259.683594 164.902344 L 259.746094 164.53125 L 259.789063 164.15625 L 259.808594 163.78125 L 259.800781 163.40625 L 259.773438 163.03125 L 259.71875 162.660156 L 259.640625 162.292969 L 259.542969 161.929688 L 259.417969 161.574219 L 259.273438 161.230469 L 259.105469 160.890625 L 258.917969 160.566406 L 258.710938 160.253906 L 258.484375 159.957031 L 258.238281 159.671875 L 257.972656 159.402344 L 257.691406 159.152344 L 257.398438 158.921875 L 257.089844 158.707031 L 256.765625 158.515625 L 256.433594 158.34375 L 256.089844 158.191406 L 255.734375 158.0625 L 255.375 157.957031 L 255.007813 157.875 L 254.636719 157.816406 L 254.261719 157.78125 Z M 253.886719 157.769531 "/>
<path style="fill:none;stroke-width:0.75;stroke-linecap:round;stroke-linejoin:round;stroke:rgb(0%,0%,0%);stroke-opacity:1;stroke-miterlimit:10;" d="M 267.265625 254.707031 L 267.265625 173.160156 "/>
<path style="fill:none;stroke-width:0.75;stroke-linecap:round;stroke-linejoin:round;stroke:rgb(80%,80%,80%);stroke-opacity:1;stroke-dasharray:0.75,2.25;stroke-miterlimit:10;" d="M 267.265625 161.320313 L 267.265625 104.488281 "/>
<path style="fill-rule:nonzero;fill:rgb(100%,53.333333%,20%);fill-opacity:0.298039;stroke-width:0.75;stroke-linecap:round;stroke-linejoin:round;stroke:rgb(0%,0%,0%);stroke-opacity:0.298039;stroke-miterlimit:10;" d="M 267.265625 161.320313 L 266.886719 161.332031 L 266.515625 161.367188 L 266.144531 161.425781 L 265.777344 161.507813 L 265.417969 161.617188 L 265.0625 161.742188 L 264.71875 161.894531 L 264.386719 162.066406 L 264.0625 162.261719 L 263.753906 162.472656 L 263.457031 162.703125 L 263.179688 162.957031 L 262.914063 163.222656 L 262.667969 163.507813 L 262.441406 163.804688 L 262.234375 164.117188 L 262.046875 164.445313 L 261.878906 164.78125 L 261.734375 165.128906 L 261.609375 165.480469 L 261.511719 165.84375 L 261.433594 166.210938 L 261.378906 166.582031 L 261.351563 166.957031 L 261.34375 167.332031 L 261.363281 167.710938 L 261.402344 168.082031 L 261.46875 168.453125 L 261.558594 168.816406 L 261.667969 169.175781 L 261.804688 169.527344 L 261.960938 169.867188 L 262.136719 170.199219 L 262.335938 170.519531 L 262.554688 170.824219 L 262.789063 171.117188 L 263.042969 171.394531 L 263.316406 171.652344 L 263.605469 171.894531 L 263.90625 172.117188 L 264.222656 172.320313 L 264.550781 172.5 L 264.890625 172.664063 L 265.238281 172.804688 L 265.597656 172.921875 L 265.960938 173.015625 L 266.328125 173.085938 L 266.703125 173.132813 L 267.074219 173.15625 L 267.453125 173.15625 L 267.828125 173.132813 L 268.199219 173.085938 L 268.566406 173.015625 L 268.933594 172.921875 L 269.289063 172.804688 L 269.636719 172.664063 L 269.976563 172.5 L 270.304688 172.320313 L 270.621094 172.117188 L 270.921875 171.894531 L 271.210938 171.652344 L 271.484375 171.394531 L 271.738281 171.117188 L 271.976563 170.824219 L 272.191406 170.519531 L 272.390625 170.199219 L 272.566406 169.867188 L 272.722656 169.527344 L 272.859375 169.175781 L 272.96875 168.816406 L 273.058594 168.453125 L 273.125 168.082031 L 273.164063 167.710938 L 273.183594 167.332031 L 273.175781 166.957031 L 273.148438 166.582031 L 273.09375 166.210938 L 273.015625 165.84375 L 272.917969 165.480469 L 272.792969 165.128906 L 272.648438 164.78125 L 272.480469 164.445313 L 272.292969 164.117188 L 272.085938 163.804688 L 271.859375 163.507813 L 271.613281 163.222656 L 271.347656 162.957031 L 271.070313 162.703125 L 270.773438 162.472656 L 270.464844 162.261719 L 270.140625 162.066406 L 269.808594 161.894531 L 269.464844 161.742188 L 269.109375 161.617188 L 268.75 161.507813 L 268.382813 161.425781 L 268.011719 161.367188 L 267.640625 161.332031 Z M 267.265625 161.320313 "/>
<path style="fill:none;stroke-width:0.75;stroke-linecap:round;stroke-linejoin:round;stroke:rgb(0%,0%,0%);stroke-opacity:1;stroke-miterlimit:10;" d="M 267.265625 254.707031 L 267.265625 238.28125 L 280.640625 228.808594 L 280.640625 163.6875 "/>
<path style="fill:none;stroke-width:0.75;stroke-linecap:round;stroke-linejoin:round;stroke:rgb(80%,80%,80%);stroke-opacity:1;stroke-dasharray:0.75,2.25;stroke-miterlimit:10;" d="M 280.640625 151.847656 L 280.640625 104.488281 "/>
<path style="fill-rule:nonzero;fill:rgb(0%,61.960784%,45.098039%);fill-opacity:0.298039;stroke-width:0.75;stroke-linecap:round;stroke-linejoin:round;stroke:rgb(0%,0%,0%);stroke-opacity:0.298039;stroke-miterlimit:10;" d="M 280.640625 151.847656 L 280.265625 151.859375 L 279.890625 151.894531 L 279.519531 151.953125 L 279.152344 152.039063 L 278.792969 152.144531 L 278.441406 152.273438 L 278.09375 152.421875 L 277.761719 152.59375 L 277.4375 152.789063 L 277.128906 153 L 276.835938 153.234375 L 276.554688 153.484375 L 276.292969 153.75 L 276.046875 154.035156 L 275.816406 154.335938 L 275.609375 154.648438 L 275.421875 154.972656 L 275.253906 155.308594 L 275.109375 155.65625 L 274.988281 156.011719 L 274.886719 156.371094 L 274.808594 156.738281 L 274.757813 157.113281 L 274.726563 157.484375 L 274.722656 157.863281 L 274.738281 158.238281 L 274.78125 158.609375 L 274.84375 158.980469 L 274.933594 159.34375 L 275.046875 159.703125 L 275.179688 160.054688 L 275.335938 160.398438 L 275.511719 160.726563 L 275.710938 161.046875 L 275.929688 161.351563 L 276.164063 161.644531 L 276.421875 161.921875 L 276.691406 162.179688 L 276.980469 162.421875 L 277.28125 162.644531 L 277.597656 162.847656 L 277.925781 163.03125 L 278.265625 163.191406 L 278.617188 163.332031 L 278.972656 163.449219 L 279.335938 163.542969 L 279.703125 163.613281 L 280.078125 163.660156 L 280.453125 163.683594 L 280.828125 163.683594 L 281.203125 163.660156 L 281.574219 163.613281 L 281.945313 163.542969 L 282.308594 163.449219 L 282.664063 163.332031 L 283.011719 163.191406 L 283.351563 163.03125 L 283.679688 162.847656 L 283.996094 162.644531 L 284.300781 162.421875 L 284.585938 162.179688 L 284.859375 161.921875 L 285.113281 161.644531 L 285.351563 161.351563 L 285.570313 161.046875 L 285.765625 160.726563 L 285.945313 160.398438 L 286.101563 160.054688 L 286.234375 159.703125 L 286.347656 159.34375 L 286.433594 158.980469 L 286.5 158.609375 L 286.542969 158.238281 L 286.558594 157.863281 L 286.554688 157.484375 L 286.523438 157.113281 L 286.46875 156.738281 L 286.394531 156.371094 L 286.292969 156.011719 L 286.171875 155.65625 L 286.023438 155.308594 L 285.859375 154.972656 L 285.671875 154.648438 L 285.460938 154.335938 L 285.234375 154.035156 L 284.988281 153.75 L 284.726563 153.484375 L 284.445313 153.234375 L 284.148438 153 L 283.839844 152.789063 L 283.519531 152.59375 L 283.183594 152.421875 L 282.839844 152.273438 L 282.488281 152.144531 L 282.125 152.039063 L 281.761719 151.953125 L 281.390625 151.894531 L 281.015625 151.859375 Z M 280.640625 151.847656 "/>
<path style="fill:none;stroke-width:0.75;stroke-linecap:round;stroke-linejoin:round;stroke:rgb(0%,0%,0%);stroke-opacity:1;stroke-miterlimit:10;" d="M 346.914063 254.707031 L 346.914063 137.640625 "/>
<path style="fill:none;stroke-width:0.75;stroke-linecap:round;stroke-linejoin:round;stroke:rgb(80%,80%,80%);stroke-opacity:1;stroke-dasharray:0.75,2.25;stroke-miterlimit:10;" d="M 346.914063 125.800781 L 346.914063 104.488281 "/>
<path style="fill-rule:nonzero;fill:rgb(0%,61.960784%,45.098039%);fill-opacity:1;stroke-width:0.75;stroke-linecap:round;stroke-linejoin:round;stroke:rgb(0%,0%,0%);stroke-opacity:1;stroke-miterlimit:10;" d="M 346.914063 125.800781 L 346.539063 125.8125 L 346.167969 125.847656 L 345.796875 125.90625 L 345.429688 125.988281 L 345.070313 126.09375 L 344.714844 126.222656 L 344.371094 126.375 L 344.039063 126.546875 L 343.714844 126.738281 L 343.40625 126.953125 L 343.109375 127.183594 L 342.832031 127.433594 L 342.566406 127.703125 L 342.320313 127.988281 L 342.09375 128.285156 L 341.886719 128.597656 L 341.699219 128.925781 L 341.53125 129.261719 L 341.386719 129.605469 L 341.261719 129.960938 L 341.164063 130.324219 L 341.085938 130.691406 L 341.03125 131.0625 L 341.003906 131.4375 L 340.996094 131.8125 L 341.015625 132.1875 L 341.054688 132.5625 L 341.121094 132.933594 L 341.210938 133.296875 L 341.320313 133.65625 L 341.457031 134.007813 L 341.613281 134.347656 L 341.789063 134.679688 L 341.988281 135 L 342.203125 135.304688 L 342.441406 135.597656 L 342.695313 135.871094 L 342.96875 136.132813 L 343.257813 136.375 L 343.558594 136.597656 L 343.875 136.800781 L 344.203125 136.980469 L 344.542969 137.144531 L 344.890625 137.28125 L 345.246094 137.398438 L 345.613281 137.496094 L 345.980469 137.566406 L 346.351563 137.613281 L 346.726563 137.636719 L 347.105469 137.636719 L 347.480469 137.613281 L 347.851563 137.566406 L 348.21875 137.496094 L 348.582031 137.398438 L 348.941406 137.28125 L 349.289063 137.144531 L 349.628906 136.980469 L 349.957031 136.800781 L 350.273438 136.597656 L 350.574219 136.375 L 350.863281 136.132813 L 351.136719 135.871094 L 351.390625 135.597656 L 351.625 135.304688 L 351.84375 135 L 352.042969 134.679688 L 352.21875 134.347656 L 352.375 134.007813 L 352.511719 133.65625 L 352.621094 133.296875 L 352.710938 132.933594 L 352.777344 132.5625 L 352.816406 132.1875 L 352.835938 131.8125 L 352.828125 131.4375 L 352.800781 131.0625 L 352.746094 130.691406 L 352.667969 130.324219 L 352.570313 129.960938 L 352.445313 129.605469 L 352.300781 129.261719 L 352.132813 128.925781 L 351.945313 128.597656 L 351.738281 128.285156 L 351.511719 127.988281 L 351.265625 127.703125 L 351 127.433594 L 350.722656 127.183594 L 350.425781 126.953125 L 350.117188 126.738281 L 349.792969 126.546875 L 349.460938 126.375 L 349.117188 126.222656 L 348.761719 126.09375 L 348.402344 125.988281 L 348.035156 125.90625 L 347.664063 125.847656 L 347.292969 125.8125 Z M 346.914063 125.800781 "/>
<g style="fill:rgb(0%,0%,0%);fill-opacity:1;">
  <use xlink:href="#glyph1-1" x="258.183594" y="98.566406"/>
  <use xlink:href="#glyph1-2" x="258.183594" y="91.892578"/>
  <use xlink:href="#glyph1-3" x="258.183594" y="85.21875"/>
  <use xlink:href="#glyph1-4" x="258.183594" y="78.544922"/>
  <use xlink:href="#glyph1-3" x="258.183594" y="71.871094"/>
  <use xlink:href="#glyph1-5" x="258.183594" y="65.197266"/>
  <use xlink:href="#glyph1-6" x="258.183594" y="58.523438"/>
  <use xlink:href="#glyph1-7" x="258.183594" y="51.849609"/>
  <use xlink:href="#glyph1-8" x="258.183594" y="48.515625"/>
  <use xlink:href="#glyph1-9" x="258.183594" y="39.181641"/>
  <use xlink:href="#glyph1-10" x="258.183594" y="32.173828"/>
</g>
<g style="fill:rgb(0%,0%,0%);fill-opacity:1;">
  <use xlink:href="#glyph1-1" x="271.558594" y="98.566406"/>
  <use xlink:href="#glyph1-2" x="271.558594" y="91.892578"/>
  <use xlink:href="#glyph1-3" x="271.558594" y="85.21875"/>
  <use xlink:href="#glyph1-4" x="271.558594" y="78.544922"/>
  <use xlink:href="#glyph1-3" x="271.558594" y="71.871094"/>
  <use xlink:href="#glyph1-5" x="271.558594" y="65.197266"/>
  <use xlink:href="#glyph1-6" x="271.558594" y="58.523438"/>
  <use xlink:href="#glyph1-7" x="271.558594" y="51.849609"/>
  <use xlink:href="#glyph1-8" x="271.558594" y="48.515625"/>
  <use xlink:href="#glyph1-9" x="271.558594" y="39.181641"/>
  <use xlink:href="#glyph1-10" x="271.558594" y="32.173828"/>
</g>
<g style="fill:rgb(0%,0%,0%);fill-opacity:1;">
  <use xlink:href="#glyph1-1" x="284.933594" y="98.566406"/>
  <use xlink:href="#glyph1-2" x="284.933594" y="91.892578"/>
  <use xlink:href="#glyph1-3" x="284.933594" y="85.21875"/>
  <use xlink:href="#glyph1-4" x="284.933594" y="78.544922"/>
  <use xlink:href="#glyph1-3" x="284.933594" y="71.871094"/>
  <use xlink:href="#glyph1-5" x="284.933594" y="65.197266"/>
  <use xlink:href="#glyph1-6" x="284.933594" y="58.523438"/>
  <use xlink:href="#glyph1-7" x="284.933594" y="51.849609"/>
  <use xlink:href="#glyph1-8" x="284.933594" y="48.515625"/>
  <use xlink:href="#glyph1-9" x="284.933594" y="39.181641"/>
  <use xlink:href="#glyph1-10" x="284.933594" y="32.173828"/>
</g>
<g style="fill:rgb(0%,0%,0%);fill-opacity:1;">
  <use xlink:href="#glyph1-1" x="351.210938" y="98.566406"/>
  <use xlink:href="#glyph1-2" x="351.210938" y="91.892578"/>
  <use xlink:href="#glyph1-3" x="351.210938" y="85.21875"/>
  <use xlink:href="#glyph1-1" x="351.210938" y="78.544922"/>
  <use xlink:href="#glyph1-5" x="351.210938" y="71.871094"/>
  <use xlink:href="#glyph1-1" x="351.210938" y="65.197266"/>
  <use xlink:href="#glyph1-3" x="351.210938" y="58.523437"/>
  <use xlink:href="#glyph1-7" x="351.210938" y="51.849609"/>
  <use xlink:href="#glyph1-11" x="351.210938" y="48.515625"/>
  <use xlink:href="#glyph1-9" x="351.210938" y="41.185547"/>
  <use xlink:href="#glyph1-12" x="351.210938" y="34.177734"/>
</g>
</g>
</svg>
